HIERARCHY
ROOT Root
{
  OFFSET 0.0 0.0 0.0
  CHANNELS 6 Xposition Yposition Zposition Zrotation Yrotation Xrotation
  JOINT Hips
  {
    OFFSET 0.0 100.0 0.0
    CHANNELS 6 Xposition Yposition Zposition Zrotation Yrotation Xrotation
    JOINT Spine1
    {
      OFFSET 5.003913 -0.037094 -0.013727
      CHANNELS 3 Zrotation Yrotation Xrotation
      JOINT Spine2
      {
        OFFSET 7.125363 -1e-06 0.0
        CHANNELS 3 Zrotation Yrotation Xrotation
        JOINT Chest
        {
          OFFSET 7.594027 1e-06 0.0
          CHANNELS 3 Zrotation Yrotation Xrotation
          JOINT Neck1
          {
            OFFSET 26.313086 -0.460272 -0.181672
            CHANNELS 3 Zrotation Yrotation Xrotation
            JOINT Neck2
            {
              OFFSET 8.045911 0.0 0.0
              CHANNELS 3 Zrotation Yrotation Xrotation
              JOINT Head
              {
                OFFSET 6.432774 0.0 0.0
                CHANNELS 3 Zrotation Yrotation Xrotation
                JOINT HeadEnd
                {
                  OFFSET 16.169773 0.06451 0.00362
                  CHANNELS 3 Zrotation Yrotation Xrotation
                }
                JOINT Jaw
                {
                  OFFSET 0.108741 3.12938 0.002639
                  CHANNELS 3 Zrotation Yrotation Xrotation
                }
                JOINT LeftEye
                {
                  OFFSET 4.45173 8.166359 3.206392
                  CHANNELS 3 Zrotation Yrotation Xrotation
                }
                JOINT RightEye
                {
                  OFFSET 4.436895 8.135758 -3.222429
                  CHANNELS 3 Zrotation Yrotation Xrotation
                }
              }
            }
          }
          JOINT LeftShoulder
          {
            OFFSET 23.218927 5.195579 1.621656
            CHANNELS 3 Zrotation Yrotation Xrotation
            JOINT LeftArm
            {
              OFFSET 15.902118 2e-06 -2e-06
              CHANNELS 3 Zrotation Yrotation Xrotation
              JOINT LeftForeArm
              {
                OFFSET 28.739307 0.0 -1e-06
                CHANNELS 3 Zrotation Yrotation Xrotation
                JOINT LeftHand
                {
                  OFFSET 27.093981 -4e-06 0.0
                  CHANNELS 3 Zrotation Yrotation Xrotation
                  JOINT LeftHandThumb1
                  {
                    OFFSET 2.276781 3.380274 0.83384
                    CHANNELS 3 Zrotation Yrotation Xrotation
                    JOINT LeftHandThumb2
                    {
                      OFFSET 4.705309 -1e-06 -1e-06
                      CHANNELS 3 Zrotation Yrotation Xrotation
                      JOINT LeftHandThumb3
                      {
                        OFFSET 2.798515 0.0 3e-06
                        CHANNELS 3 Zrotation Yrotation Xrotation
                        JOINT LeftHandThumbEnd
                        {
                          OFFSET 3.180793 4e-06 -4e-06
                          CHANNELS 3 Zrotation Yrotation Xrotation
                        }
                      }
                    }
                  }
                  JOINT LeftHandIndex1
                  {
                    OFFSET 3.247786 2.352677 0.137192
                    CHANNELS 3 Zrotation Yrotation Xrotation
                    JOINT LeftHandIndex2
                    {
                      OFFSET 6.367095 1e-06 0.0
                      CHANNELS 3 Zrotation Yrotation Xrotation
                      JOINT LeftHandIndex3
                      {
                        OFFSET 3.662364 0.0 0.0
                        CHANNELS 3 Zrotation Yrotation Xrotation
                        JOINT LeftHandIndex4
                        {
                          OFFSET 2.329242 4e-06 -4e-06
                          CHANNELS 3 Zrotation Yrotation Xrotation
                          JOINT LeftHandIndexEnd
                          {
                            OFFSET 2.767823 1e-06 0.0
                            CHANNELS 3 Zrotation Yrotation Xrotation
                          }
                        }
                      }
                    }
                  }
                  JOINT LeftHandMiddle1
                  {
                    OFFSET 3.163612 0.945023 -0.406112
                    CHANNELS 3 Zrotation Yrotation Xrotation
                    JOINT LeftHandMiddle2
                    {
                      OFFSET 6.276789 3e-06 0.0
                      CHANNELS 3 Zrotation Yrotation Xrotation
                      JOINT LeftHandMiddle3
                      {
                        OFFSET 4.35652 -1e-06 4e-06
                        CHANNELS 3 Zrotation Yrotation Xrotation
                        JOINT LeftHandMiddle4
                        {
                          OFFSET 2.996877 0.0 8e-06
                          CHANNELS 3 Zrotation Yrotation Xrotation
                          JOINT LeftHandMiddleEnd
                          {
                            OFFSET 2.323256 3e-06 -4e-06
                            CHANNELS 3 Zrotation Yrotation Xrotation
                          }
                        }
                      }
                    }
                  }
                  JOINT LeftHandRing1
                  {
                    OFFSET 2.882606 -0.309162 0.107445
                    CHANNELS 3 Zrotation Yrotation Xrotation
                    JOINT LeftHandRing2
                    {
                      OFFSET 6.033198 0.0 4e-06
                      CHANNELS 3 Zrotation Yrotation Xrotation
                      JOINT LeftHandRing3
                      {
                        OFFSET 4.350578 3e-06 0.0
                        CHANNELS 3 Zrotation Yrotation Xrotation
                        JOINT LeftHandRing4
                        {
                          OFFSET 2.651321 2e-06 -7e-06
                          CHANNELS 3 Zrotation Yrotation Xrotation
                          JOINT LeftHandRingEnd
                          {
                            OFFSET 1.937663 1e-06 -4e-06
                            CHANNELS 3 Zrotation Yrotation Xrotation
                          }
                        }
                      }
                    }
                  }
                  JOINT LeftHandPinky1
                  {
                    OFFSET 2.865315 -1.525436 0.575687
                    CHANNELS 3 Zrotation Yrotation Xrotation
                    JOINT LeftHandPinky2
                    {
                      OFFSET 5.54936 1e-06 -8e-06
                      CHANNELS 3 Zrotation Yrotation Xrotation
                      JOINT LeftHandPinky3
                      {
                        OFFSET 3.070974 0.0 -4e-06
                        CHANNELS 3 Zrotation Yrotation Xrotation
                        JOINT LeftHandPinky4
                        {
                          OFFSET 1.549672 1e-06 0.0
                          CHANNELS 3 Zrotation Yrotation Xrotation
                          JOINT LeftHandPinkyEnd
                          {
                            OFFSET 1.952123 0.0 0.0
                            CHANNELS 3 Zrotation Yrotation Xrotation
                          }
                        }
                      }
                    }
                  }
                }
              }
            }
          }
          JOINT RightShoulder
          {
            OFFSET 23.161716 5.296122 -1.380114
            CHANNELS 3 Zrotation Yrotation Xrotation
            JOINT RightArm
            {
              OFFSET -16.027195 -2e-06 1.1e-05
              CHANNELS 3 Zrotation Yrotation Xrotation
              JOINT RightForeArm
              {
                OFFSET -28.736639 4e-06 2e-06
                CHANNELS 3 Zrotation Yrotation Xrotation
                JOINT RightHand
                {
                  OFFSET -27.133619 6e-06 0.0
                  CHANNELS 3 Zrotation Yrotation Xrotation
                  JOINT RightHandThumb1
                  {
                    OFFSET -2.274328 -3.351035 -0.83067
                    CHANNELS 3 Zrotation Yrotation Xrotation
                    JOINT RightHandThumb2
                    {
                      OFFSET -4.703594 -3e-06 2e-06
                      CHANNELS 3 Zrotation Yrotation Xrotation
                      JOINT RightHandThumb3
                      {
                        OFFSET -2.794935 -4e-06 -3e-06
                        CHANNELS 3 Zrotation Yrotation Xrotation
                        JOINT RightHandThumbEnd
                        {
                          OFFSET -3.183852 4e-06 1e-06
                          CHANNELS 3 Zrotation Yrotation Xrotation
                        }
                      }
                    }
                  }
                  JOINT RightHandIndex1
                  {
                    OFFSET -3.253496 -2.33755 -0.127667
                    CHANNELS 3 Zrotation Yrotation Xrotation
                    JOINT RightHandIndex2
                    {
                      OFFSET -6.344434 0.0 0.0
                      CHANNELS 3 Zrotation Yrotation Xrotation
                      JOINT RightHandIndex3
                      {
                        OFFSET -3.654871 0.0 -8e-06
                        CHANNELS 3 Zrotation Yrotation Xrotation
                        JOINT RightHandIndex4
                        {
                          OFFSET -2.327586 -1e-06 0.0
                          CHANNELS 3 Zrotation Yrotation Xrotation
                          JOINT RightHandIndexEnd
                          {
                            OFFSET -2.770001 3e-06 8e-06
                            CHANNELS 3 Zrotation Yrotation Xrotation
                          }
                        }
                      }
                    }
                  }
                  JOINT RightHandMiddle1
                  {
                    OFFSET -3.168223 -0.944764 0.411762
                    CHANNELS 3 Zrotation Yrotation Xrotation
                    JOINT RightHandMiddle2
                    {
                      OFFSET -6.266691 -1e-06 -4e-06
                      CHANNELS 3 Zrotation Yrotation Xrotation
                      JOINT RightHandMiddle3
                      {
                        OFFSET -4.348901 0.0 0.0
                        CHANNELS 3 Zrotation Yrotation Xrotation
                        JOINT RightHandMiddle4
                        {
                          OFFSET -3.00024 2e-06 -4e-06
                          CHANNELS 3 Zrotation Yrotation Xrotation
                          JOINT RightHandMiddleEnd
                          {
                            OFFSET -2.321477 -4e-06 -4e-06
                            CHANNELS 3 Zrotation Yrotation Xrotation
                          }
                        }
                      }
                    }
                  }
                  JOINT RightHandRing1
                  {
                    OFFSET -2.885654 0.293261 -0.119232
                    CHANNELS 3 Zrotation Yrotation Xrotation
                    JOINT RightHandRing2
                    {
                      OFFSET -6.032835 -1e-06 -4e-06
                      CHANNELS 3 Zrotation Yrotation Xrotation
                      JOINT RightHandRing3
                      {
                        OFFSET -4.33881 0.0 -4e-06
                        CHANNELS 3 Zrotation Yrotation Xrotation
                        JOINT RightHandRing4
                        {
                          OFFSET -2.654903 -4e-06 -4e-06
                          CHANNELS 3 Zrotation Yrotation Xrotation
                          JOINT RightHandRingEnd
                          {
                            OFFSET -1.935122 0.0 4e-06
                            CHANNELS 3 Zrotation Yrotation Xrotation
                          }
                        }
                      }
                    }
                  }
                  JOINT RightHandPinky1
                  {
                    OFFSET -2.866241 1.503904 -0.60527
                    CHANNELS 3 Zrotation Yrotation Xrotation
                    JOINT RightHandPinky2
                    {
                      OFFSET -5.553177 -2e-06 0.0
                      CHANNELS 3 Zrotation Yrotation Xrotation
                      JOINT RightHandPinky3
                      {
                        OFFSET -3.062664 -1e-06 -4e-06
                        CHANNELS 3 Zrotation Yrotation Xrotation
                        JOINT RightHandPinky4
                        {
                          OFFSET -1.546529 2e-06 4e-06
                          CHANNELS 3 Zrotation Yrotation Xrotation
                          JOINT RightHandPinkyEnd
                          {
                            OFFSET -1.952341 0.0 -4e-06
                            CHANNELS 3 Zrotation Yrotation Xrotation
                          }
                        }
                      }
                    }
                  }
                }
              }
            }
          }
        }
      }
    }
    JOINT LeftLeg
    {
      OFFSET -8.443107 2.567604 10.043214
      CHANNELS 3 Zrotation Yrotation Xrotation
      JOINT LeftShin
      {
        OFFSET 43.229198 1e-06 -1e-06
        CHANNELS 3 Zrotation Yrotation Xrotation
        JOINT LeftFoot
        {
          OFFSET 42.298611 1e-06 1e-06
          CHANNELS 3 Zrotation Yrotation Xrotation
          JOINT LeftToeBase
          {
            OFFSET 14.165858 1e-06 0.0
            CHANNELS 3 Zrotation Yrotation Xrotation
            JOINT LeftToeEnd
            {
              OFFSET 6.7141 -0.234461 0.0
              CHANNELS 3 Zrotation Yrotation Xrotation
            }
          }
        }
      }
    }
    JOINT RightLeg
    {
      OFFSET -8.303923 2.592729 -10.047278
      CHANNELS 3 Zrotation Yrotation Xrotation
      JOINT RightShin
      {
        OFFSET -43.369682 0.0 1e-06
        CHANNELS 3 Zrotation Yrotation Xrotation
        JOINT RightFoot
        {
          OFFSET -42.260784 4e-06 2e-06
          CHANNELS 3 Zrotation Yrotation Xrotation
          JOINT RightToeBase
          {
            OFFSET -14.222245 -2e-06 -1e-06
            CHANNELS 3 Zrotation Yrotation Xrotation
            JOINT RightToeEnd
            {
              OFFSET -6.660062 0.232574 -2e-06
              CHANNELS 3 Zrotation Yrotation Xrotation
            }
          }
        }
      }
    }
  }
}
MOTION
Frames: 4
Frame Time: 0.03333333333333333
0.0 0.0 0.0 0.0 -0.0 0.0 -13.981399 95.903709 278.333649 83.932343 1.358478 98.054398 0.960873 3.777787 -0.478881 -10.9396 -0.013145 -3.395795 16.53418 4.969752 -5.115401 32.173935 2.688507 2.390521 -2.77273 -0.820321 1.77207 -40.591358 0.022497 1.822826 6e-06 -0.0 -0.0 0.057875 0.014049 0.017908 -0.008693 -0.014699 -0.013116 -0.025486 0.038285 0.060909 -118.695808 -76.079773 138.578674 48.226612 -42.314171 16.154903 36.003452 0.066322 0.406589 -0.964328 5.749975 -4.154926 17.636642 -26.322756 52.411259 -19.466696 -14.395621 29.410446 -3e-06 -8.774842 -5e-06 16.136427 -17.953644 6.079386 -0.609776 -1.795655 -3.889337 -4.807091 -11.046823 -2.937858 2e-05 -20.976076 -5e-06 -5.01996 -25.033686 -4.031905 7e-06 2e-06 1e-06 -10.634542 -5.686971 -3.565593 10.573298 -17.922977 -3.113909 1.3e-05 -13.821247 3e-06 -0.501749 -31.181671 -4.027035 -10.971638 -59.05069 7.617265 -13.982729 -7.150201 -2.875048 13.772754 -8.401509 -3.218248 0.347757 -34.211655 0.771656 -0.963029 -17.733461 2.621047 0.0 3e-06 0.0 -17.346434 -20.09523 -4.201793 21.757595 -1.638385 3.866431 4e-06 -6.33884 2e-06 -1.697575 -22.591852 -6.194044 -1e-06 -6e-06 -1e-06 61.313251 -72.043068 139.576401 30.405722 -56.1483 19.431124 24.355015 -0.373177 -0.089886 -2.07625 5.125734 -1.548971 22.182156 -20.375914 49.933315 -16.701883 -16.743532 28.476574 -2.3e-05 -12.69062 1e-06 16.222767 -17.97366 2.639644 -0.105918 -1.51386 -4.275883 -5.039041 -5.612885 -2.953561 2.1e-05 -11.020576 -8e-06 -6.111279 -15.895433 -3.840489 1e-06 -0.0 -3e-06 -10.283374 -5.680292 -4.341843 11.028319 -11.302451 -2.372638 -1.384246 -14.238648 -6.320143 -0.625387 -26.924397 -3.827626 -4.11707 -50.23798 -3.79756 -13.70853 -7.36348 -3.720942 18.141193 -14.052808 -3.242686 4e-05 -18.787371 -1.4e-05 -0.429698 -8.456112 2.55552 0.0 -1e-06 -1e-06 -15.923532 -20.094511 -5.473589 30.419245 -7.190877 1.735921 1.4e-05 -8.162961 -6e-06 -1.861848 -22.861628 -6.167992 1e-06 -5e-06 -3e-06 -179.320328 -14.460993 -1.608511 61.039654 -1.170254 0.759202 -59.064888 6.425367 -6.624826 -9.759934 1.661239 2.36074 -0.999998 -0.0 1e-06 -23.613745 4.25386 -13.869632 28.240801 0.042077 -0.067377 -73.682137 -6.231476 -1.527977 -5.214159 0.575399 1.644329 -1.000002 0.0 0.0 
0.0 0.0 0.0 0.0 -0.0 0.0 -14.608617 96.617706 282.525909 83.218224 1.877523 98.202759 1.20178 4.438145 -0.231165 -10.909842 0.100583 -2.982629 16.656427 5.085326 -4.547215 33.096859 2.995421 2.472564 -2.806929 -0.898339 1.483269 -40.656696 -0.094126 1.450094 6e-06 0.0 0.0 0.058917 0.004514 0.033515 -0.001959 -0.010034 0.004261 -0.03288 0.015104 0.076837 -115.781677 -75.905624 135.615936 48.258858 -43.649849 17.753525 34.860928 0.208443 0.506089 -1.0778 5.025202 -4.42666 17.63665 -26.322721 52.41114 -19.466698 -14.39563 29.410393 -1e-05 -8.774843 -3e-06 16.110455 -17.971363 6.179984 -0.609774 -1.795653 -3.889325 -4.807083 -11.046807 -2.937847 3.6e-05 -20.976048 0.0 -5.019951 -25.033619 -4.031878 9e-06 3e-06 -3e-06 -10.634536 -5.686958 -3.565584 10.573309 -17.922962 -3.113905 2.3e-05 -13.821226 7e-06 -0.501736 -31.181597 -4.026998 -11.045302 -59.472412 7.733745 -13.982721 -7.150187 -2.875033 13.772761 -8.401507 -3.218248 0.347782 -34.211636 0.771661 -0.963015 -17.733452 2.621053 1e-06 -3e-06 -1e-06 -17.346418 -20.095198 -4.201777 21.757587 -1.638402 3.866422 9e-06 -6.338833 5e-06 -1.697558 -22.591816 -6.194019 1e-06 -5e-06 -3e-06 60.141216 -72.231575 140.689148 33.027195 -54.314804 18.142897 25.73999 -0.275605 -0.122289 -2.08876 5.599413 -2.046625 22.182102 -20.375933 49.933273 -16.701805 -16.743515 28.476515 -2.3e-05 -12.690579 6e-06 16.077055 -18.019258 2.727873 -0.105918 -1.513853 -4.275877 -5.039027 -5.612861 -2.953554 1.9e-05 -11.020529 5e-06 -6.11126 -15.895351 -3.840467 2e-06 1e-06 1e-06 -10.283354 -5.680271 -4.341836 11.028287 -11.30241 -2.372628 -1.384247 -14.238574 -6.320111 -0.625405 -26.92424 -3.827577 -4.254886 -50.275345 -3.748602 -13.708502 -7.363456 -3.72094 18.141138 -14.052751 -3.242666 2.2e-05 -18.787273 1.9e-05 -0.429708 -8.456064 2.555521 -0.0 -2e-06 1e-06 -15.923495 -20.09445 -5.473584 30.41917 -7.190851 1.735911 9e-06 -8.162933 9e-06 -1.861872 -22.861515 -6.167915 0.0 -1e-06 -0.0 174.683441 -15.336617 -0.372461 68.790161 -1.103147 0.572861 -61.134293 0.568666 -5.89018 -7.472229 1.620184 2.442796 -1.000001 1e-06 -0.0 -19.569363 5.89137 -15.248901 26.730568 -0.056646 -0.121485 -76.040916 -5.39422 -1.071782 -5.285618 0.586654 1.657474 -1.000003 -1e-06 0.0 
0.0 0.0 0.0 0.0 -0.0 0.0 -15.135995 97.560524 286.726746 83.280579 2.151834 97.879509 1.327876 4.707797 -0.021296 -10.847647 0.106046 -2.362984 16.732761 4.768646 -3.968285 34.10928 3.042351 2.522041 -2.809355 -0.881485 1.156358 -40.200027 -0.139359 1.093591 6e-06 1e-06 -1e-06 0.051589 -0.001361 0.041331 0.051179 -0.016081 0.03355 0.012258 0.009373 0.064215 -113.903923 -75.359779 133.872391 47.593815 -44.831226 18.810831 33.516335 0.312296 0.482941 -1.070277 4.472512 -4.466318 17.63662 -26.322729 52.411167 -19.466679 -14.395615 29.410406 -1e-06 -8.774837 -3e-06 16.125404 -18.052444 6.246756 -0.609773 -1.795652 -3.889327 -4.80709 -11.046819 -2.937849 9e-06 -20.976057 3e-06 -5.01997 -25.033655 -4.031895 6e-06 3e-06 -3e-06 -10.634535 -5.686971 -3.565585 10.573286 -17.922964 -3.113907 9e-06 -13.82124 -1e-06 -0.501765 -31.181654 -4.027026 -11.239214 -59.783012 7.70978 -13.982717 -7.150198 -2.875035 13.772738 -8.401499 -3.218246 0.347738 -34.211628 0.771659 -0.963033 -17.73344 2.621034 -1e-06 1e-06 1e-06 -17.346424 -20.095221 -4.201775 21.757576 -1.638378 3.866418 2e-06 -6.338838 2e-06 -1.697578 -22.591848 -6.194032 0.0 -5e-06 -4e-06 58.029423 -72.489517 142.741104 35.778164 -52.256905 16.099707 26.819525 -0.062595 -0.135893 -2.084237 6.415279 -2.291533 22.182106 -20.375895 49.933289 -16.701828 -16.743528 28.476532 -1.1e-05 -12.690604 4e-06 16.037348 -17.997089 2.76036 -0.105918 -1.513857 -4.275878 -5.039037 -5.612873 -2.953552 1.2e-05 -11.020545 -1e-06 -6.111283 -15.895386 -3.840477 -2e-06 1e-06 -1e-06 -10.283365 -5.680285 -4.341835 11.028295 -11.302414 -2.372635 -1.384256 -14.238598 -6.320126 -0.625408 -26.924286 -3.827608 -4.365499 -50.268566 -3.660136 -13.70852 -7.363475 -3.720938 18.141159 -14.052756 -3.242681 1.9e-05 -18.787312 -4e-06 -0.429707 -8.45608 2.555517 3e-06 -3e-06 -3e-06 -15.923531 -20.094481 -5.473578 30.419214 -7.190843 1.735918 9e-06 -8.162938 -4e-06 -1.861874 -22.861547 -6.167951 -1e-06 -1e-06 -2e-06 169.289886 -14.654029 0.51124 72.294945 -0.792078 0.408378 -64.289162 -3.369946 -5.236015 -7.253989 1.589848 2.343877 -1.0 1e-06 0.0 -14.665446 7.036337 -15.741805 23.200155 -0.079206 -0.126561 -77.26667 -4.668329 -0.775974 -5.251857 0.635379 1.673549 -1.000002 -0.0 0.0 
0.0 0.0 0.0 0.0 -0.0 0.0 -15.57703 98.450127 290.893188 83.845497 2.329945 97.126488 1.516606 4.72971 0.179279 -10.722406 0.11958 -1.643615 16.680023 4.135585 -3.346607 34.94381 2.743487 2.559573 -2.786808 -0.80889 0.820039 -39.496933 -0.158967 0.83565 6e-06 -0.0 -0.0 0.044222 -0.003212 0.016103 0.099581 -0.025363 0.029995 0.060751 0.014587 0.017862 -112.585373 -74.493828 132.748749 46.148846 -45.777313 19.858942 32.6861 0.304146 0.371125 -0.836867 3.913915 -4.183702 17.636629 -26.322754 52.411247 -19.466692 -14.395604 29.410446 4e-06 -8.774843 -3e-06 16.245125 -18.135033 6.277219 -0.609777 -1.795657 -3.889327 -4.807104 -11.046841 -2.937858 -4e-06 -20.976103 -5e-06 -5.019991 -25.033722 -4.031913 4e-06 0.0 -1e-06 -10.634545 -5.686989 -3.565591 10.573277 -17.922985 -3.113909 -2e-06 -13.821263 -4e-06 -0.50177 -31.181717 -4.02706 -11.478224 -60.052555 7.748564 -13.982728 -7.150218 -2.875043 13.772742 -8.401504 -3.218251 0.347725 -34.2117 0.771643 -0.963034 -17.733488 2.621033 2e-06 3e-06 3e-06 -17.346447 -20.095266 -4.201781 21.757589 -1.638362 3.866434 -2e-06 -6.338849 -2e-06 -1.697596 -22.591896 -6.194061 -1e-06 -3e-06 -2e-06 56.270546 -73.259926 144.33075 38.404652 -50.488621 13.448491 28.062347 0.086839 -0.141629 -2.107256 7.198637 -2.057218 22.18211 -20.375887 49.933353 -16.70182 -16.74354 28.476557 2e-06 -12.690619 1e-06 16.042669 -17.916281 2.806643 -0.10592 -1.513856 -4.275884 -5.039048 -5.612878 -2.953561 2e-06 -11.020545 -6e-06 -6.111308 -15.895403 -3.840497 -0.0 1e-06 -3e-06 -10.28338 -5.680298 -4.341838 11.028296 -11.302402 -2.372638 -1.384277 -14.238607 -6.320141 -0.625427 -26.924297 -3.827644 -4.484188 -50.192921 -3.518553 -13.708535 -7.363489 -3.720945 18.141157 -14.052739 -3.242678 2e-06 -18.787302 -9e-06 -0.429711 -8.456072 2.55551 1e-06 0.0 2e-06 -15.923556 -20.094503 -5.473584 30.419235 -7.19081 1.735928 0.0 -8.16294 -3e-06 -1.861896 -22.861568 -6.167986 3e-06 -1e-06 -2e-06 164.723511 -12.932138 0.937548 71.959862 -0.407832 0.24183 -66.981613 -4.707208 -5.01596 -7.442808 1.55053 2.200381 -1.0 -0.0 -1e-06 -9.277667 7.787506 -15.322507 18.541916 -0.037226 -0.099145 -77.765594 -4.170778 -0.661872 -5.247356 0.686268 1.689274 -1.000002 1e-06 -0.0 
